<svg width="133" height="47" viewBox="0 0 133 47" fill="none" xmlns="http://www.w3.org/2000/svg">
<path d="M62.8206 26.2167L62.5765 24.8477C62.0017 25.4597 61.2908 25.9269 60.5017 26.2114C59.6909 26.5097 58.7481 26.6588 57.6735 26.6588C55.4085 26.6588 53.6236 25.9131 52.3189 24.4216C51.0142 22.9301 50.3618 20.8869 50.3618 18.292C50.3618 15.6393 51.0895 13.5817 52.545 12.1191C54.0005 10.6565 56.0398 9.9252 58.663 9.9252C60.7272 9.9252 62.3919 10.4391 63.6572 11.4669C64.9224 12.4947 65.6732 13.9431 65.9095 15.812H61.079C60.8852 15.1799 60.5716 14.6984 60.138 14.3677C59.7044 14.0369 59.1686 13.8711 58.5307 13.8702C57.511 13.8702 56.7494 14.2619 56.2457 15.0452C55.7421 15.8285 55.4894 16.9966 55.4876 18.5494C55.4876 19.9871 55.7421 21.0616 56.2511 21.7729C56.76 22.4842 57.5341 22.8398 58.5732 22.8398C59.3189 22.8398 59.9516 22.6656 60.4711 22.317C60.718 22.1598 60.9305 21.9541 61.0959 21.7123C61.2612 21.4704 61.3761 21.1975 61.4334 20.91H59.1431V17.5158H66.101V26.2167H62.8206Z" fill="#0251B4"/>
<path d="M79.25 20.0605H84.0666C83.9234 22.1499 83.1888 23.7725 81.8628 24.9284C80.5368 26.0842 78.7413 26.661 76.4763 26.6588C73.9387 26.6588 71.9424 25.9131 70.4873 24.4216C69.0323 22.9301 68.3048 20.8869 68.3048 18.292C68.3048 15.7042 69.0252 13.6628 70.4661 12.1678C71.9069 10.6727 73.8709 9.9252 76.358 9.9252C78.6522 9.9252 80.4568 10.4809 81.7717 11.5923C83.0867 12.7037 83.8232 14.2905 83.9815 16.3528H79.1111C79.0392 15.5406 78.7774 14.9278 78.3257 14.5144C77.8739 14.1009 77.2395 13.8942 76.4225 13.8942C75.4263 13.8942 74.6791 14.259 74.1807 14.9885C73.6824 15.718 73.4335 16.8196 73.434 18.2933C73.434 19.7386 73.7 20.8311 74.232 21.5708C74.764 22.3106 75.5418 22.6809 76.5654 22.6818C77.3537 22.6818 77.979 22.4553 78.4414 22.0023C78.9038 21.5493 79.1733 20.902 79.25 20.0605Z" fill="#0251B4"/>
<path d="M84.6472 26.2167L90.2173 10.336H95.3677L100.937 26.218H95.893L95.3018 24.1155H90.2585L89.646 26.218L84.6472 26.2167ZM91.1848 20.7826H94.3768L92.7961 15.2839L91.1848 20.7826Z" fill="#0251B4"/>
<path d="M101.647 21.2681H106.593C106.729 21.8429 106.976 22.2561 107.334 22.5077C107.693 22.7594 108.227 22.8852 108.937 22.8852C109.532 22.8852 109.999 22.7827 110.34 22.5778C110.681 22.3728 110.851 22.0908 110.851 21.7315C110.851 21.1563 110.138 20.6895 108.711 20.3312C108.425 20.2592 108.206 20.2052 108.055 20.1691C106.887 19.8677 105.956 19.5928 105.262 19.3443C104.569 19.0958 104.065 18.8639 103.751 18.6488C103.173 18.2438 102.703 17.7019 102.383 17.071C102.078 16.4602 101.926 15.7629 101.927 14.9792C101.927 13.4054 102.518 12.1691 103.7 11.2702C104.882 10.3713 106.51 9.92209 108.582 9.92253C110.618 9.92253 112.22 10.352 113.388 11.2109C114.556 12.0697 115.215 13.3007 115.366 14.9038H110.539C110.46 14.4366 110.253 14.088 109.921 13.8582C109.588 13.6284 109.113 13.5132 108.496 13.5128C107.951 13.5128 107.546 13.6017 107.281 13.7795C107.016 13.9573 106.883 14.2305 106.882 14.5991C106.882 15.1241 107.578 15.5626 108.968 15.9147C109.09 15.9507 109.183 15.9761 109.248 15.9901C109.448 16.0408 109.753 16.1163 110.162 16.2168C112.004 16.6836 113.208 17.1075 113.774 17.4885C114.477 17.9561 114.99 18.4881 115.312 19.0842C115.635 19.6804 115.796 20.385 115.796 21.1981C115.796 22.9519 115.185 24.2995 113.962 25.2411C112.74 26.1827 110.989 26.6535 108.709 26.6535C106.609 26.6535 104.944 26.1827 103.715 25.2411C102.485 24.2995 101.796 22.9752 101.647 21.2681Z" fill="#0251B4"/>
<path d="M118.087 26.2167V10.336H123.173V15.7273H127.914V10.336H133V26.2167H127.914V20.0605H123.173V26.2167H118.087Z" fill="#0251B4"/>
<path d="M56.4506 36.8587L56.3295 36.1919C56.0487 36.4913 55.7012 36.7198 55.3154 36.8587C54.8705 37.0122 54.402 37.0858 53.9316 37.0761C52.8232 37.0761 51.9507 36.7116 51.3141 35.9825C50.6775 35.2534 50.3585 34.2547 50.3572 32.9864C50.3572 31.6896 50.713 30.6838 51.4245 29.969C52.1361 29.2541 53.1336 28.8965 54.417 28.896C55.4265 28.896 56.2404 29.1474 56.8589 29.6502C57.4773 30.153 57.8442 30.861 57.9595 31.7741H55.5994C55.5249 31.4956 55.3637 31.2482 55.1392 31.0679C54.9117 30.9011 54.6349 30.8156 54.3532 30.8252C53.8557 30.8252 53.4836 31.0168 53.2366 31.4C52.9897 31.7832 52.8667 32.3536 52.8676 33.1111C52.8676 33.814 52.9919 34.3394 53.2406 34.6875C53.4893 35.0356 53.8673 35.2094 54.3744 35.209C54.7033 35.2199 55.0279 35.1308 55.3054 34.9536C55.4261 34.8766 55.5299 34.776 55.6107 34.6577C55.6915 34.5394 55.7476 34.406 55.7756 34.2654H54.6531V32.6083H58.0546V36.8614L56.4506 36.8587Z" fill="#0251B4"/>
<path d="M58.7002 36.8587L61.4227 29.0954H63.9404L66.6629 36.8587H64.1977L63.9065 35.8311H61.446L61.1461 36.8587H58.7002ZM61.8922 34.2021H63.4536L62.6809 31.5147L61.8922 34.2021Z" fill="#0251B4"/>
<path d="M69.6256 36.8587H67.3759V29.0954H70.4036L71.4756 32.9691C71.4895 33.0218 71.5181 33.1425 71.56 33.3298C71.6019 33.5172 71.6618 33.7773 71.7389 34.1074C71.7877 33.8473 71.832 33.6199 71.8719 33.4252C71.9138 33.2298 71.9511 33.0831 71.9823 32.9851L73.0836 29.0954H76.106V36.8587H73.8563L73.8769 33.0378C73.8769 32.8057 73.8769 32.5803 73.8769 32.3603C73.8769 32.1402 73.8816 31.9135 73.8849 31.6781C73.8011 32.0782 73.6996 32.5156 73.5803 32.9904L73.5643 33.0571L72.6081 36.8581H70.8731L69.9062 33.1418C69.8603 32.9731 69.8151 32.7797 69.7692 32.5616C69.7233 32.3436 69.6641 32.0488 69.591 31.6768C69.6016 32.0102 69.6094 32.2965 69.6142 32.5356C69.6191 32.7748 69.6218 32.9662 69.6222 33.1098L69.6256 36.8587Z" fill="#0251B4"/>
<path d="M77.5642 36.8587V29.0954H80.7389C81.2369 29.0879 81.735 29.1055 82.2312 29.1481C82.5053 29.1744 82.7753 29.2328 83.0358 29.3222C83.4022 29.4494 83.7181 29.6913 83.9369 30.0123C84.1457 30.3235 84.2501 30.7029 84.2501 31.1506C84.2625 31.4745 84.1806 31.795 84.0144 32.073C83.8483 32.351 83.6051 32.5745 83.3145 32.7163C83.7241 32.8635 84.0271 33.0847 84.2235 33.3799C84.4199 33.675 84.5181 34.0582 84.5181 34.5295C84.5285 34.9478 84.4297 35.3616 84.2315 35.7298C84.0396 36.0695 83.7489 36.3423 83.3983 36.512C83.1335 36.6438 82.8499 36.7338 82.5577 36.7787C82.242 36.8316 81.7198 36.8578 80.991 36.8574L77.5642 36.8587ZM79.9768 32.1942H81.0016C81.3447 32.1942 81.5866 32.1433 81.7271 32.0415C81.8668 31.9395 81.9372 31.7674 81.9372 31.5247C81.9372 31.2686 81.8621 31.0926 81.7111 30.9979C81.5602 30.9032 81.2117 30.8559 80.6651 30.8559H79.9768V32.1942ZM79.9768 35.0456H81.1299C81.5116 35.0456 81.7832 34.9894 81.9446 34.8769C82.1059 34.7644 82.1864 34.5799 82.186 34.3234C82.186 34.0674 82.1037 33.8846 81.9392 33.7753C81.7748 33.6659 81.4979 33.6115 81.1087 33.6119H79.9782L79.9768 35.0456Z" fill="#0251B4"/>
<path d="M85.7218 36.8587V29.0954H88.2076V34.7982H91.5871V36.8587H85.7218Z" fill="#0251B4"/>
<path d="M92.6438 36.8587V29.0954H95.1774V36.8587H92.6438Z" fill="#0251B4"/>
<path d="M96.691 36.8587V29.0954H99.0511L101.222 32.7057C101.306 32.8428 101.377 32.9875 101.434 33.1378C101.51 33.3238 101.589 33.5486 101.674 33.8126C101.653 33.6753 101.637 33.5246 101.627 33.3592C101.616 33.1938 101.611 32.9938 101.611 32.759V29.0954H103.981V36.8587H101.612L99.4401 33.2752C99.355 33.1324 99.2821 32.9828 99.222 32.8277C99.1427 32.6343 99.0629 32.4121 98.9826 32.1609C99.0078 32.303 99.0253 32.4463 99.0352 32.5903C99.0458 32.7397 99.0511 32.9495 99.0511 33.2198V36.8567L96.691 36.8587Z" fill="#0251B4"/>
<path d="M111.213 36.8587L111.093 36.1919C110.812 36.4913 110.464 36.7198 110.078 36.8587C109.634 37.0126 109.166 37.0867 108.696 37.0775C107.587 37.0775 106.715 36.7129 106.078 35.9839C105.441 35.2548 105.123 34.2561 105.122 32.9878C105.122 31.691 105.476 30.6852 106.186 29.9703C106.895 29.2555 107.893 28.8978 109.178 28.8974C110.187 28.8974 111.001 29.1488 111.62 29.6516C112.238 30.1544 112.605 30.8623 112.721 31.7754H110.361C110.286 31.4968 110.125 31.2493 109.901 31.0693C109.673 30.9023 109.397 30.8168 109.115 30.8265C108.618 30.8265 108.245 31.0181 107.998 31.4013C107.751 31.7846 107.627 32.3554 107.628 33.1138C107.628 33.8166 107.752 34.3421 108.001 34.6902C108.249 35.0383 108.628 35.2121 109.136 35.2117C109.464 35.2218 109.787 35.1329 110.063 34.9563C110.184 34.8792 110.288 34.7785 110.369 34.6602C110.45 34.542 110.506 34.4086 110.534 34.2681H109.414V32.6083H112.815V36.8614L111.213 36.8587Z" fill="#0251B4"/>
<path d="M114.12 36.8587V34.5295H116.402V36.8587H114.12Z" fill="#0251B4"/>
<path d="M117.771 36.8587V29.0954H120.956C121.661 29.0954 122.219 29.1366 122.631 29.2188C122.997 29.2845 123.348 29.4204 123.663 29.6189C124.004 29.8432 124.28 30.1544 124.461 30.5205C124.639 30.8783 124.727 31.3033 124.727 31.7955C124.727 32.6637 124.472 33.3287 123.96 33.7906C123.448 34.2525 122.711 34.4835 121.748 34.4835H120.26V36.8607L117.771 36.8587ZM120.257 32.5843H121.055C121.574 32.5843 121.921 32.5263 122.096 32.4103C122.271 32.2942 122.36 32.0886 122.362 31.7935C122.362 31.4956 122.278 31.2884 122.109 31.172C121.941 31.0555 121.59 30.9975 121.058 30.9979H120.26L120.257 32.5843Z" fill="#0251B4"/>
<path d="M125.71 36.8587V29.0954H128.196V31.7308H130.514V29.0954H133V36.8587H130.514V33.8493H128.196V36.8587H125.71Z" fill="#0251B4"/>
<path d="M13.828 21.3995C13.6738 21.8803 13.8593 22.2924 14.0182 22.7425C14.3421 23.6507 14.356 24.6183 14.3215 25.5705C14.2829 26.6335 14.225 27.6951 14.1818 28.758C14.1705 29.0127 14.1552 29.2688 14.1439 29.5249L8.43754 33.6379C7.61588 32.421 6.9459 31.1078 6.44254 29.7276C6.31353 29.3746 6.19538 29.0167 6.0881 28.654C5.3756 26.2508 5.16889 23.7253 5.48106 21.2378C5.79324 18.7502 6.61749 16.3549 7.90155 14.2036L14.9678 19.5563C14.8545 19.773 14.7281 19.9825 14.5895 20.1838C14.3155 20.5739 13.979 20.9387 13.828 21.3995Z" fill="white"/>
<path d="M41.5279 23.4993C41.5279 23.7881 41.5219 24.0755 41.5079 24.3596H30.0486C30.0486 24.2982 30.0486 24.2375 30.0486 24.1768V24.1675C30.2179 24.1269 30.3842 24.0752 30.5467 24.0128C30.9238 23.8721 31.2955 23.7054 31.6147 23.4553C31.9153 23.2246 32.1939 22.9092 32.2531 22.5217C32.2918 22.2171 32.2151 21.909 32.0383 21.6582C31.8644 21.4017 31.6132 21.2078 31.3215 21.1047C30.9929 20.992 30.6691 21.0654 30.3466 21.1674C30.2136 21.2094 30.0872 21.2574 29.9562 21.3121C29.9456 20.7146 29.9356 20.1158 29.9263 19.5156C29.9308 19.5125 29.935 19.5089 29.9389 19.505C30.5713 18.9395 31.368 18.3107 31.3155 17.3644C31.2762 16.6342 30.5587 16.1174 29.8704 16.3248C29.8704 16.2108 29.8658 16.0968 29.8644 15.9827C29.8518 15.3246 29.8392 14.6637 29.8285 14.0069C29.8179 13.5135 29.8611 12.972 29.6955 12.5005C29.5487 12.094 29.2794 11.7433 28.9249 11.4972C28.5704 11.2511 28.1483 11.1216 27.7172 11.1268C27.4864 11.1268 27.2563 11.1362 27.0256 11.1395L23.4139 11.2062C22.1553 11.2298 20.8965 11.2542 19.6374 11.2795C19.3466 11.284 19.0562 11.2891 18.7663 11.2949C18.4138 11.2977 18.0678 11.3902 17.7606 11.5636C17.4535 11.737 17.1952 11.9857 17.01 12.2865C16.6722 12.8419 16.7127 13.4334 16.7254 14.0483C16.7409 14.8338 16.7557 15.6195 16.7699 16.4055C16.7766 16.7883 16.7846 17.1704 16.7919 17.5545C16.7549 17.511 16.7089 17.4763 16.6571 17.4527C16.6053 17.429 16.5489 17.4171 16.492 17.4178C16.3957 17.4149 16.3007 17.4397 16.218 17.4891C16.218 17.4565 16.1741 17.4331 16.1515 17.4611C15.9918 17.6631 15.8496 17.8784 15.7265 18.1046C15.5935 18.3447 15.4685 18.5881 15.3422 18.8321C15.2158 19.0762 15.0994 19.3176 14.9704 19.5563L7.90149 14.2036C9.51049 11.5115 11.7863 9.2822 14.5079 7.7322C17.2296 6.18219 20.3046 5.36411 23.4346 5.35737C33.2653 5.35737 41.2885 13.2574 41.5226 23.0572C41.5266 23.2059 41.5279 23.3526 41.5279 23.4993Z" fill="#0251B4"/>
<path d="M29.393 34.8509C29.3837 33.8311 29.3744 32.8106 29.365 31.7895C29.3644 31.7839 29.3644 31.7783 29.365 31.7728C29.3606 31.7695 29.3566 31.7657 29.3531 31.7614C29.3498 31.7614 29.3498 31.7568 29.3464 31.7554L29.3418 31.7588C29.3274 31.7624 29.3123 31.7624 29.2979 31.7588C28.5744 31.5807 27.6141 31.2326 27.668 30.3104C27.7152 29.5442 28.6655 29.4035 29.2859 29.4435C29.2746 28.9201 29.2653 28.3993 29.256 27.8778C29.0569 27.9605 28.8557 28.0396 28.6522 28.1152C28.5052 28.1775 28.3461 28.2058 28.1867 28.1979C27.517 28.1312 27.0096 27.2296 27.2118 26.6068C27.4239 25.956 28.1986 25.6906 28.7499 25.4112C28.7704 25.4007 28.794 25.3978 28.8164 25.4032C28.8242 25.385 28.8381 25.3701 28.8557 25.3611C28.9887 25.2878 29.117 25.2131 29.2493 25.1431C29.2571 25.1387 29.2653 25.1353 29.2739 25.1331C29.2739 25.0957 29.2739 25.0597 29.2739 25.0224C29.2739 25.0117 29.2739 25.0004 29.2739 24.9897C29.2739 24.737 29.2773 24.4843 29.2786 24.2329H29.2719H29.26C28.841 24.1755 28.462 23.9274 28.2964 23.526C28.1454 23.1592 28.2545 22.7598 28.4799 22.4471C28.6552 22.2085 28.8639 21.9967 29.0997 21.8182C29.0995 21.8171 29.0995 21.816 29.0997 21.8149C29.1138 21.8039 29.1285 21.7937 29.1436 21.7842V21.7776C29.1403 21.6215 29.1376 21.4655 29.1343 21.3108C29.1135 20.1918 29.0913 19.0731 29.0678 17.9546C29.0456 16.7218 29.0224 15.4882 28.998 14.2536L28.9807 13.2674C28.9813 13.1435 28.9688 13.0199 28.9434 12.8986C28.8801 12.6433 28.7369 12.415 28.535 12.2471C28.3331 12.0791 28.0828 11.9803 27.8209 11.9651C27.6214 11.9557 27.4146 11.9711 27.2138 11.9744L25.8173 12.0011C24.5134 12.026 23.2089 12.0504 21.9037 12.0744C20.9311 12.0944 19.9577 12.1131 18.9837 12.1304C18.9073 12.1304 18.8295 12.1304 18.7517 12.1351C18.5782 12.138 18.4072 12.1772 18.2496 12.2501C18.0921 12.323 17.9514 12.4281 17.8366 12.5585C17.6045 12.8253 17.5347 13.1587 17.542 13.4981L17.5699 15.0092C17.5886 15.9583 17.6067 16.9074 17.6245 17.8566C17.648 19.0875 17.6715 20.319 17.695 21.5508C17.7198 22.9076 17.7451 24.2635 17.7708 25.6185C17.796 26.9238 17.8211 28.2281 17.8459 29.5315C17.8659 30.6256 17.8865 31.7199 17.9078 32.8144C17.9206 33.5372 17.9341 34.2596 17.9483 34.9816C17.9514 35.1496 17.9545 35.317 17.9576 35.4837C17.9656 35.9398 18.1571 36.3626 18.5621 36.6013C18.8807 36.7887 19.2158 36.7687 19.5656 36.7621L20.8291 36.7387C22.1148 36.7143 23.4004 36.6898 24.6861 36.6654L27.8116 36.6047C28.1295 36.6 28.444 36.614 28.7366 36.4626C28.9406 36.3536 29.1102 36.1898 29.2267 35.9896C29.3432 35.7894 29.4019 35.5607 29.3963 35.329C29.3972 35.1694 29.3961 35.0101 29.393 34.8509ZM26.6193 22.5811H25.2839L25.1829 22.0236C24.9491 22.2733 24.66 22.4642 24.339 22.5811C23.968 22.7092 23.5774 22.7706 23.1852 22.7625C22.2622 22.7625 21.5347 22.4586 21.0027 21.8509C20.4707 21.2432 20.2047 20.4101 20.2047 19.3516C20.2047 18.27 20.5015 17.4313 21.0951 16.8356C21.6887 16.2399 22.52 15.9416 23.5889 15.9407C24.4312 15.9407 25.1106 16.1499 25.6271 16.5682C26.1436 16.9866 26.449 17.5765 26.5435 18.338H24.5737C24.5113 18.1064 24.3775 17.9006 24.1913 17.7499C24.0011 17.6119 23.7703 17.5415 23.5357 17.5498C23.1203 17.5498 22.8099 17.7101 22.6047 18.0306C22.3994 18.3511 22.2961 18.8273 22.2948 19.459C22.2948 20.0445 22.3987 20.4826 22.6067 20.7733C22.8135 21.062 23.1293 21.2087 23.5529 21.2087C23.8263 21.2172 24.0958 21.1428 24.3263 20.9954C24.427 20.9311 24.5137 20.847 24.5812 20.7482C24.6486 20.6494 24.6954 20.538 24.7187 20.4205H23.7877V19.0349H26.6239L26.6193 22.5811Z" fill="#0251B4"/>
<path d="M14.2216 31.0479C13.8439 31.6914 13.4901 32.3469 13.0745 32.9637C12.6188 33.6378 12.1098 34.274 11.5523 34.8662C11.2737 35.1596 10.9824 35.4437 10.6805 35.7125C10.5679 35.8125 10.4542 35.9103 10.3394 36.0059C9.8295 35.4682 9.35249 34.9001 8.91095 34.3048C8.74869 34.086 8.59197 33.8638 8.4408 33.6379L14.1472 29.5249C14.1295 29.8546 14.1322 30.1851 14.1551 30.5145C14.1679 30.6933 14.1901 30.8714 14.2216 31.0479Z" fill="#D80026"/>
<path d="M22.0388 2.4973C10.4898 2.4973 1.09131 11.9197 1.09131 23.5027C1.09131 35.0856 10.4864 44.508 22.0388 44.508C33.5912 44.508 42.9863 35.0856 42.9863 23.506C42.9863 11.9264 33.5879 2.4973 22.0388 2.4973ZM16.5652 35.4797C16.5625 35.313 16.5594 35.1456 16.5559 34.9776C16.5417 34.2561 16.5282 33.5337 16.5153 32.8104C16.494 31.7163 16.4734 30.622 16.4535 29.5275C16.4282 28.2228 16.4032 26.9184 16.3783 25.6145C16.3517 24.2595 16.3265 22.9036 16.3025 21.5468C16.2786 20.315 16.2551 19.0835 16.232 17.8526C16.2134 16.903 16.1952 15.9539 16.1775 15.0052L16.1496 13.4941C16.1416 13.152 16.2121 12.8226 16.4442 12.5545C16.5586 12.4243 16.6988 12.3193 16.8559 12.2463C17.0129 12.1733 17.1834 12.1338 17.3565 12.1304C17.4343 12.1304 17.5122 12.1304 17.5886 12.1258C18.5617 12.1084 19.5351 12.0898 20.5086 12.0697C21.8134 12.0466 23.1179 12.0222 24.4222 11.9964L25.8187 11.9697C26.0182 11.9664 26.225 11.9511 26.4258 11.9604C26.6877 11.9756 26.9379 12.0745 27.1399 12.2424C27.3418 12.4104 27.485 12.6387 27.5483 12.894C27.5737 13.0152 27.5862 13.1388 27.5856 13.2627L27.6029 14.249C27.6259 15.4822 27.6481 16.7158 27.6694 17.9499C27.6915 19.0698 27.7137 20.1885 27.7359 21.3061C27.7392 21.4608 27.7418 21.6169 27.7452 21.7729V21.7796C27.7299 21.7889 27.7153 21.7991 27.7013 21.8102C27.701 21.8113 27.701 21.8125 27.7013 21.8136C27.4653 21.9919 27.2565 22.2037 27.0815 22.4424C26.8561 22.7551 26.749 23.1546 26.898 23.5213C27.0629 23.9214 27.4426 24.1708 27.8615 24.2282H27.8802H27.8868C27.8868 24.4796 27.8835 24.7323 27.8822 24.985C27.8822 24.9957 27.8822 25.0071 27.8822 25.0177C27.8822 25.0551 27.8822 25.0911 27.8822 25.1284C27.8735 25.1305 27.8652 25.1339 27.8576 25.1384C27.7246 25.2084 27.5916 25.2831 27.4632 25.3565C27.4459 25.3656 27.4323 25.3805 27.4246 25.3985C27.4022 25.3932 27.3787 25.396 27.3581 25.4065C26.8069 25.6859 26.0321 25.9513 25.82 26.6021C25.6205 27.225 26.1252 28.1258 26.7949 28.1932C26.9543 28.2011 27.1134 28.1729 27.2604 28.1105C27.4639 28.0354 27.6651 27.9562 27.8642 27.8731C27.8735 28.3946 27.8828 28.9154 27.8941 29.4389C27.271 29.3982 26.3234 29.5389 26.2762 30.3057C26.2217 31.228 27.1826 31.5761 27.9061 31.7541C27.9205 31.7577 27.9356 31.7577 27.95 31.7541L27.9546 31.7508C27.958 31.7508 27.958 31.7541 27.9613 31.7568C27.9648 31.761 27.9688 31.7648 27.9733 31.7681C27.9726 31.7736 27.9726 31.7792 27.9733 31.7848C27.9826 32.8073 27.9919 33.8277 28.0012 34.8462C28.0012 35.0056 28.0012 35.1643 28.0059 35.3224C28.0113 35.554 27.9525 35.7827 27.8361 35.9828C27.7196 36.183 27.55 36.3468 27.3462 36.456C27.0529 36.6073 26.739 36.5933 26.4212 36.598L23.2957 36.6587C22.01 36.6823 20.7243 36.7067 19.4387 36.732L18.1752 36.7554C17.8254 36.7621 17.4902 36.7821 17.171 36.5947C16.7627 36.3586 16.5732 35.9358 16.5652 35.4797ZM22.0388 41.6426C20.5557 41.6438 19.078 41.4619 17.6392 41.1012C17.8806 40.8544 18.0907 40.5677 18.3042 40.313C18.6034 39.9569 18.8754 39.6148 19.2385 39.328C19.548 39.0777 19.8219 38.786 20.0525 38.4612C20.2883 38.1591 20.584 37.9094 20.9209 37.7276C21.0912 37.6356 21.2947 37.6356 21.4596 37.5376C21.4596 37.5376 21.4596 37.5343 21.4662 37.5329C21.5593 37.5329 21.6531 37.5329 21.7462 37.5282C23.0478 37.5029 24.3488 37.4785 25.6491 37.4549C25.9989 37.4469 26.3493 37.4402 26.6978 37.4342C27.2744 37.4236 27.8143 37.2488 28.2273 36.8341C28.5639 36.4962 28.7739 36.0522 28.8218 35.5771C28.8323 35.4061 28.8339 35.2347 28.8265 35.0636C28.8185 34.4301 28.8078 33.7966 28.7999 33.1611C28.7965 32.9751 28.7939 32.791 28.7906 32.605C28.8032 32.6066 28.816 32.605 28.8278 32.6003C29.3539 32.4081 29.839 32.1178 30.2575 31.7448C30.6186 31.42 30.9312 30.9512 30.8008 30.4424C30.6851 29.9897 30.2296 29.7683 29.814 29.6589C29.4447 29.5659 29.068 29.5054 28.6881 29.4782C28.689 29.4745 28.689 29.4706 28.6881 29.4669C28.6881 28.8347 28.6915 28.1999 28.6915 27.567V27.561C29.2973 27.3203 29.9024 27.0102 30.3087 26.5121C30.5747 26.184 30.6984 25.7786 30.5801 25.3631C30.4398 24.8777 30.0647 24.5729 29.5573 24.5683C29.2464 24.5731 28.9394 24.6379 28.6529 24.759C28.6529 24.5656 28.6529 24.3716 28.6529 24.1768V24.1675C28.8221 24.1269 28.9885 24.0752 29.151 24.0128C29.528 23.8721 29.8998 23.7054 30.219 23.4553C30.5196 23.2246 30.7982 22.9092 30.8574 22.5217C30.896 22.2171 30.8194 21.909 30.6426 21.6582C30.4683 21.4018 30.2169 21.2079 29.925 21.1047C29.5965 20.992 29.2727 21.0654 28.9501 21.1674C28.8172 21.2094 28.6901 21.2574 28.5598 21.3121C28.5487 20.7146 28.5387 20.1158 28.5299 19.5157C28.5344 19.5125 28.5386 19.5089 28.5425 19.505C29.1743 18.9395 29.9716 18.3107 29.9184 17.3644C29.8798 16.6342 29.1623 16.1174 28.474 16.3248C28.474 16.2108 28.4694 16.0968 28.468 15.9827C28.4554 15.3246 28.4428 14.6637 28.4321 14.0069C28.4208 13.5135 28.4647 12.972 28.2991 12.5005C28.1522 12.094 27.8829 11.7435 27.5284 11.4973C27.1739 11.2512 26.7519 11.1217 26.3207 11.1268C26.09 11.1268 25.8599 11.1362 25.6291 11.1395L22.0175 11.2062C20.7589 11.2298 19.5001 11.2542 18.241 11.2795C17.9504 11.2842 17.6604 11.2889 17.3692 11.2949C17.0168 11.2979 16.671 11.3904 16.3639 11.5638C16.0569 11.7372 15.7987 11.9858 15.6136 12.2865C15.2758 12.8419 15.3163 13.4334 15.329 14.0483C15.344 14.8338 15.3589 15.6195 15.3735 16.4055C15.3802 16.7883 15.3875 17.1704 15.3955 17.5545C15.3585 17.511 15.3125 17.4763 15.2607 17.4527C15.2088 17.429 15.1525 17.4171 15.0955 17.4178C14.9993 17.4149 14.9042 17.4397 14.8216 17.4891C14.8216 17.4565 14.7777 17.4331 14.7551 17.4611C14.5954 17.6631 14.4532 17.8784 14.3301 18.1046C14.1971 18.3447 14.0721 18.5881 13.9458 18.8321C13.7123 19.2889 13.4916 19.7604 13.1956 20.1838C12.9217 20.5739 12.5852 20.936 12.4342 21.3995C12.2799 21.8803 12.4655 22.2924 12.6244 22.7425C12.9483 23.6507 12.9622 24.6183 12.9276 25.5705C12.8891 26.6335 12.8312 27.6951 12.7873 28.758C12.7641 29.3408 12.7095 29.9323 12.7581 30.5145C12.7719 30.6934 12.7952 30.8715 12.8279 31.0479C12.4502 31.6914 12.0964 32.3469 11.6808 32.9637C11.2251 33.6378 10.716 34.274 10.1586 34.8662C9.87995 35.1596 9.58868 35.4437 9.28677 35.7125C9.1746 35.8125 9.06089 35.9103 8.94562 36.0059C8.43484 35.4683 7.95694 34.9002 7.51454 34.3048C6.47544 32.9064 5.64335 31.3647 5.04407 29.7276C4.91506 29.3746 4.79669 29.0167 4.68896 28.654C3.89248 25.9471 3.73618 23.0914 4.23247 20.3134C4.72877 17.5354 5.86398 14.9117 7.54801 12.6504C9.23205 10.3892 11.4185 8.55268 13.9339 7.28671C16.4493 6.02075 19.2244 5.36015 22.0388 5.35737C31.8695 5.35737 39.8927 13.2574 40.1268 23.0572C40.1301 23.2039 40.1315 23.3526 40.1315 23.4993C40.1321 33.5039 32.0158 41.6426 22.0388 41.6426Z" fill="#0251B4"/>
<path d="M41.508 24.3596C41.0578 33.966 33.1237 41.6426 23.4346 41.6426C21.9517 41.6438 20.4743 41.4619 19.0356 41.1012C19.2764 40.8544 19.4865 40.5677 19.7006 40.313C19.9999 39.9569 20.2725 39.6148 20.635 39.328C20.9445 39.0777 21.2184 38.786 21.4489 38.4612C21.685 38.1593 21.9806 37.9095 22.3174 37.7276C22.4877 37.6356 22.6912 37.6356 22.8561 37.5376C22.8594 37.5376 22.8594 37.5342 22.8627 37.5329C22.9558 37.5329 23.0496 37.5329 23.1427 37.5282C24.4443 37.5029 25.7453 37.4785 27.0456 37.4549C27.3954 37.4469 27.7458 37.4402 28.0949 37.4342C28.6708 37.4236 29.2108 37.2488 29.6244 36.8341C29.961 36.4962 30.171 36.0522 30.219 35.5771C30.2298 35.4061 30.2314 35.2347 30.2236 35.0636C30.2156 34.4301 30.205 33.7966 30.197 33.1611C30.1937 32.9751 30.191 32.791 30.1877 32.605C30.2003 32.6066 30.2131 32.605 30.2249 32.6003C30.7508 32.408 31.2357 32.1177 31.654 31.7448C32.0151 31.42 32.3277 30.9512 32.1973 30.4424C32.0823 29.9897 31.6261 29.7683 31.2105 29.6589C30.8411 29.5659 30.4644 29.5054 30.0846 29.4782C30.0846 29.4782 30.0846 29.4715 30.0846 29.4669C30.0846 28.8347 30.0846 28.1999 30.0846 27.567V27.561C30.6904 27.3203 31.2956 27.0102 31.7019 26.5121C31.9679 26.184 32.0916 25.7786 31.9732 25.3631C31.8329 24.8777 31.4578 24.5729 30.9505 24.5683C30.6396 24.5731 30.3325 24.6379 30.0461 24.759C30.0461 24.6256 30.0461 24.4923 30.0461 24.3589L41.508 24.3596Z" fill="#D80026"/>
<path d="M26.6213 19.0349V22.5831H25.284L25.1829 22.0256C24.9489 22.2745 24.6598 22.4648 24.339 22.5811C23.9681 22.7092 23.5775 22.7706 23.1852 22.7625C22.2622 22.7625 21.5347 22.4586 21.0027 21.8509C20.4707 21.2432 20.2047 20.4101 20.2047 19.3516C20.2047 18.27 20.5015 17.4313 21.0951 16.8356C21.6888 16.2399 22.52 15.9416 23.5889 15.9407C24.4312 15.9407 25.1106 16.1499 25.6271 16.5682C26.1436 16.9866 26.4491 17.5765 26.5435 18.338H24.5738C24.5113 18.1064 24.3775 17.9006 24.1914 17.7499C24.0011 17.6119 23.7704 17.5415 23.5357 17.5498C23.1203 17.5498 22.81 17.7101 22.6047 18.0306C22.3994 18.3511 22.2961 18.8273 22.2948 19.459C22.2948 20.0445 22.3988 20.4826 22.6067 20.7733C22.8135 21.062 23.1294 21.2087 23.553 21.2087C23.8263 21.2172 24.0958 21.1428 24.3264 20.9954C24.4271 20.9311 24.5138 20.847 24.5812 20.7482C24.6486 20.6494 24.6954 20.538 24.7187 20.4205H23.7877V19.0349H26.6213Z" fill="white"/>
<path d="M23.4347 2.4973C11.8856 2.4973 2.49048 11.9197 2.49048 23.5027C2.49048 35.0856 11.8856 44.508 23.438 44.508C34.9904 44.508 44.3855 35.0856 44.3855 23.506C44.3855 11.9264 34.9837 2.4973 23.4347 2.4973ZM17.961 35.4797C17.9584 35.313 17.9553 35.1456 17.9517 34.9776C17.938 34.2561 17.9245 33.5337 17.9112 32.8104C17.8899 31.7163 17.8693 30.622 17.8493 29.5275C17.824 28.2228 17.799 26.9184 17.7742 25.6145C17.7485 24.2595 17.7232 22.9036 17.6984 21.5468C17.6753 20.315 17.6518 19.0835 17.6279 17.8526C17.6093 16.903 17.5911 15.9539 17.5733 15.0052L17.5454 13.4941C17.5381 13.152 17.6079 12.8226 17.84 12.5545C17.9545 12.4242 18.0948 12.3192 18.252 12.2461C18.4092 12.1731 18.5798 12.1337 18.7531 12.1304C18.8309 12.1304 18.9087 12.1304 18.9851 12.1258C19.9578 12.1084 20.9311 12.0898 21.9051 12.0697C23.2099 12.0466 24.5144 12.0222 25.8187 11.9964L27.2152 11.9697C27.4147 11.9664 27.6215 11.9511 27.8223 11.9604C28.0842 11.9756 28.3345 12.0745 28.5364 12.2424C28.7383 12.4104 28.8815 12.6387 28.9448 12.894C28.9702 13.0152 28.9827 13.1388 28.9821 13.2627L28.9994 14.249C29.0229 15.4822 29.0461 16.7158 29.0692 17.9499C29.0914 19.0698 29.1135 20.1885 29.1357 21.3061C29.1357 21.4608 29.1417 21.6169 29.145 21.7729V21.7796C29.1299 21.789 29.1152 21.7993 29.1011 21.8102C29.1009 21.8113 29.1009 21.8125 29.1011 21.8136C28.8653 21.9921 28.6566 22.2039 28.4813 22.4424C28.2559 22.7551 28.1488 23.1546 28.2978 23.5213C28.4627 23.9214 28.8424 24.1708 29.2614 24.2282H29.28H29.2866C29.2866 24.4796 29.2833 24.7323 29.282 24.985C29.282 24.9957 29.282 25.0071 29.282 25.0177C29.282 25.0551 29.282 25.0911 29.282 25.1284C29.2734 25.1306 29.2651 25.134 29.2574 25.1384C29.1244 25.2084 28.9914 25.2831 28.8637 25.3565C28.8461 25.3654 28.8322 25.3803 28.8245 25.3985C28.8021 25.3932 28.7785 25.396 28.758 25.4065C28.2067 25.6859 27.432 25.9513 27.2198 26.6021C27.0203 27.225 27.5251 28.1258 28.1947 28.1932C28.3541 28.2011 28.5132 28.1729 28.6602 28.1105C28.8646 28.0354 29.0659 27.9562 29.264 27.8731C29.2733 28.3946 29.2827 28.9154 29.294 29.4389C28.6709 29.3982 27.7232 29.5389 27.676 30.3057C27.6222 31.228 28.5824 31.5761 29.3059 31.7541C29.3203 31.7577 29.3354 31.7577 29.3498 31.7541L29.3545 31.7508C29.3545 31.7508 29.3545 31.7541 29.3611 31.7568C29.3646 31.761 29.3687 31.7648 29.3731 31.7681C29.3724 31.7736 29.3724 31.7792 29.3731 31.7848C29.3824 32.8073 29.3917 33.8277 29.401 34.8462C29.401 35.0054 29.4026 35.1641 29.4057 35.3224C29.4113 35.5541 29.3526 35.7828 29.2361 35.9829C29.1196 36.1831 28.9499 36.3469 28.746 36.456C28.4534 36.6073 28.1389 36.5933 27.821 36.598L24.6955 36.6587C23.4098 36.6823 22.1242 36.7067 20.8385 36.732L19.575 36.7554C19.2252 36.7621 18.89 36.7821 18.5715 36.5947C18.1592 36.3586 17.969 35.9358 17.961 35.4797ZM23.4347 41.6426C21.9517 41.6438 20.4743 41.4619 19.0357 41.1012C19.2764 40.8544 19.4865 40.5677 19.7007 40.313C19.9999 39.9569 20.2726 39.6148 20.635 39.328C20.9445 39.0777 21.2184 38.786 21.449 38.4612C21.685 38.1593 21.9807 37.9095 22.3175 37.7276C22.4877 37.6356 22.6912 37.6356 22.8561 37.5376C22.8594 37.5376 22.8594 37.5343 22.8627 37.5329C22.9559 37.5329 23.0496 37.5329 23.1427 37.5282C24.4443 37.5029 25.7453 37.4785 27.0456 37.4549C27.3954 37.4469 27.7458 37.4402 28.095 37.4342C28.6709 37.4236 29.2108 37.2488 29.6245 36.8341C29.9611 36.4962 30.1711 36.0522 30.219 35.5771C30.2298 35.4061 30.2314 35.2347 30.2236 35.0636C30.2157 34.4301 30.205 33.7966 30.197 33.1611C30.1937 32.9751 30.1911 32.791 30.1877 32.605C30.2003 32.6066 30.2131 32.605 30.225 32.6003C30.7508 32.408 31.2357 32.1177 31.654 31.7448C32.0151 31.42 32.3277 30.9512 32.1974 30.4424C32.0823 29.9897 31.6261 29.7683 31.2105 29.6589C30.8412 29.5659 30.4645 29.5054 30.0847 29.4782C30.0847 29.4782 30.0847 29.4715 30.0847 29.4669C30.0847 28.8347 30.0847 28.1999 30.0847 27.567V27.561C30.6905 27.3203 31.2956 27.0102 31.7019 26.5121C31.9679 26.184 32.0916 25.7786 31.9732 25.3631C31.8329 24.8777 31.4579 24.5729 30.9505 24.5683C30.6396 24.5731 30.3326 24.6379 30.0461 24.759C30.0461 24.5656 30.045 24.3716 30.0428 24.1768V24.1675C30.212 24.1269 30.3783 24.0752 30.5408 24.0128C30.9179 23.8721 31.2896 23.7054 31.6088 23.4553C31.9094 23.2246 32.188 22.9092 32.2472 22.5217C32.2859 22.2171 32.2092 21.909 32.0324 21.6582C31.86 21.4028 31.6111 21.2089 31.3216 21.1047C30.993 20.992 30.6692 21.0654 30.3467 21.1674C30.2137 21.2094 30.0873 21.2574 29.9563 21.3121C29.9457 20.7146 29.9357 20.1158 29.9264 19.5157C29.9309 19.5125 29.9351 19.5089 29.939 19.505C30.5714 18.9395 31.3681 18.3107 31.3156 17.3644C31.2763 16.6342 30.5588 16.1174 29.8705 16.3248C29.8705 16.2108 29.8659 16.0968 29.8645 15.9827C29.8519 15.3246 29.8393 14.6637 29.8286 14.0069C29.818 13.5135 29.8612 12.972 29.6956 12.5005C29.5488 12.094 29.2795 11.7433 28.925 11.4972C28.5705 11.2511 28.1484 11.1216 27.7172 11.1268C27.4865 11.1268 27.2564 11.1362 27.0257 11.1395L23.414 11.2062C22.1554 11.2298 20.8966 11.2542 19.6375 11.2795C19.3467 11.284 19.0563 11.2891 18.7664 11.2949C18.4139 11.2977 18.0679 11.3902 17.7607 11.5636C17.4536 11.737 17.1953 11.9857 17.0101 12.2865C16.6723 12.8419 16.7128 13.4334 16.7255 14.0483C16.741 14.8338 16.7558 15.6195 16.77 16.4055C16.7767 16.7883 16.7847 17.1704 16.792 17.5545C16.755 17.511 16.709 17.4763 16.6572 17.4527C16.6054 17.429 16.549 17.4171 16.4921 17.4178C16.3958 17.4149 16.3008 17.4397 16.2181 17.4891C16.2181 17.4565 16.1742 17.4331 16.1516 17.4611C15.9919 17.6631 15.8497 17.8784 15.7266 18.1046C15.5936 18.3447 15.4686 18.5881 15.3423 18.8321C15.1089 19.2889 14.8881 19.7604 14.5921 20.1838C14.3182 20.5739 13.9817 20.936 13.8307 21.3995C13.6764 21.8803 13.862 22.2924 14.0209 22.7425C14.3448 23.6507 14.3587 24.6183 14.3242 25.5705C14.2856 26.6335 14.2277 27.6951 14.1845 28.758C14.1606 29.3408 14.1067 29.9323 14.1546 30.5145C14.1684 30.6934 14.1917 30.8715 14.2244 31.0479C13.8467 31.6914 13.4929 32.3469 13.0773 32.9637C12.6216 33.6378 12.1125 34.274 11.5551 34.8662C11.2765 35.1596 10.9852 35.4437 10.6833 35.7125C10.5707 35.8125 10.457 35.9103 10.3421 36.0059C9.83135 35.4683 9.35345 34.9002 8.91105 34.3048C7.87172 32.9064 7.0394 31.3647 6.43991 29.7276C6.3109 29.3746 6.19275 29.0167 6.08547 28.654C5.28886 25.9472 5.13245 23.0914 5.62864 20.3135C6.12484 17.5355 7.25998 14.9117 8.94397 12.6504C10.628 10.3892 12.8144 8.55264 15.3298 7.28667C17.8452 6.0207 20.6202 5.36012 23.4347 5.35737C33.2653 5.35737 41.2886 13.2574 41.5227 23.0572C41.526 23.2039 41.5273 23.3526 41.5273 23.4993C41.528 33.5039 33.4116 41.6426 23.4347 41.6426Z" fill="white"/>
<path d="M8.87177 25.4732L6.29822 25.8973L6.82291 28.9707L4.33115 27.6571L3.99001 27.4783L3.5398 28.4399L2.75976 30.107L2.46051 29.5162L1.9192 28.4686C1.40191 25.5416 1.357 22.5503 1.7862 19.609L2.99251 17.1497L4.12301 19.4496L6.36339 18.2126L5.91851 21.1874L9.19363 21.6649L7.04901 23.7574L7.66879 24.3415L8.87177 25.4732Z" fill="#FFDD6C"/>
<path d="M23.4346 0C10.5123 0 0 10.5414 0 23.5007C0 36.46 10.5123 47 23.4346 47C36.3569 47 46.8705 36.4586 46.8705 23.5007C46.8705 10.5427 36.3582 0 23.4346 0ZM23.4346 44.5027C11.8855 44.5027 2.49043 35.0803 2.49043 23.5007C2.49043 11.921 11.8855 2.4953 23.4379 2.4953C34.9903 2.4953 44.3854 11.9177 44.3854 23.5007C44.3854 35.0836 34.9837 44.5027 23.4346 44.5027Z" fill="#0251B4"/>
</svg>
